<svg xmlns="http://www.w3.org/2000/svg" width="512" height="512" viewBox="0 0 512 512" fill="none">
  <path fill="#FF7A00" fill-rule="evenodd" d="M 256.00 256.00 m -163.84 0 a 163.84 163.84 0 1 0 327.68 0 a 163.84 163.84 0 1 0 -327.68 0 M 256.00 256.00 m -103.84 0 a 103.84 103.84 0 1 1 207.68 0 a 103.84 103.84 0 1 1 -207.68 0"/>
  <polygon points="256.00,256.00 174.08,114.11 174.37,113.94 174.66,113.78 174.95,113.61 175.24,113.44 175.54,113.28 175.83,113.12 176.12,112.95 176.41,112.79 176.71,112.63 177.00,112.46 177.29,112.30 177.59,112.14 177.88,111.98 178.18,111.82 178.47,111.66 178.77,111.51 179.06,111.35 179.36,111.19 179.65,111.03 179.95,110.88 180.25,110.72 180.55,110.57 180.84,110.42 181.14,110.26 181.44,110.11 181.74,109.96 182.04,109.81 182.34,109.65 182.64,109.50 182.93,109.35 183.24,109.20 183.54,109.06 183.84,108.91 184.14,108.76 184.44,108.61 184.74,108.47 185.04,108.32 185.34,108.18 185.65,108.03 185.95,107.89 186.25,107.75 186.56,107.61 186.86,107.46 187.16,107.32 187.47,107.18 187.77,107.04 188.08,106.90 188.38,106.76 188.69,106.63 188.99,106.49 189.30,106.35 189.61,106.22 189.91,106.08 190.22,105.95 190.53,105.81 190.83,105.68 191.14,105.54 191.45,105.41 191.76,105.28 192.06,105.15 192.37,105.02 192.68,104.89 192.99,104.76 193.30,104.63 193.61,104.50 193.92,104.38 194.23,104.25 194.54,104.12 194.85,104.00 195.16,103.87 195.47,103.75 195.79,103.63 196.10,103.50 196.41,103.38 196.72,103.26 197.03,103.14 197.35,103.02 197.66,102.90 197.97,102.78 198.29,102.66 198.60,102.54 198.92,102.43 199.23,102.31 199.54,102.19 199.86,102.08 200.17,101.96 200.49,101.85 200.80,101.74 201.12,101.62 201.44,101.51 201.75,101.40 202.07,101.29 202.38,101.18 202.70,101.07 203.02,100.96 203.34,100.85 203.65,100.75 203.97,100.64 204.29,100.53 204.61,100.43 204.92,100.32 205.24,100.22 205.56,100.12 205.88,100.01 206.20,99.91 206.52,99.81 206.84,99.71 207.16,99.61 207.48,99.51 207.80,99.41 208.12,99.31 208.44,99.21 208.76,99.12 209.08,99.02 209.40,98.93 209.72,98.83 210.05,98.74 210.37,98.64 210.69,98.55 211.01,98.46 211.33,98.37 211.66,98.28 211.98,98.18 212.30,98.09 212.62,98.01 212.95,97.92 213.27,97.83 213.60,97.74 213.92,97.66 214.24,97.57 214.57,97.49 214.89,97.40 215.22,97.32 215.54,97.23 215.87,97.15 216.19,97.07 216.52,96.99 216.84,96.91 217.17,96.83 217.49,96.75 217.82,96.67 218.14,96.59 218.47,96.52 218.80,96.44 219.12,96.36 219.45,96.29 219.78,96.21 220.10,96.14 220.43,96.07 220.76,96.00 221.08,95.92 221.41,95.85 221.74,95.78 222.07,95.71 222.39,95.64 222.72,95.58 223.05,95.51 223.38,95.44 223.71,95.37 224.04,95.31 224.37,95.24 224.69,95.18 225.02,95.12 225.35,95.05 225.68,94.99 226.01,94.93 226.34,94.87 226.67,94.81 227.00,94.75 227.33,94.69 227.66,94.63 227.99,94.57 228.32,94.52 228.65,94.46 228.98,94.40 229.31,94.35 229.64,94.29 229.97,94.24 230.30,94.19 230.63,94.14 230.97,94.08 231.30,94.03 231.63,93.98 231.96,93.93 232.29,93.88 232.62,93.84 232.95,93.79 233.29,93.74 233.62,93.70 233.95,93.65 234.28,93.61 234.61,93.56 234.95,93.52 235.28,93.48 235.61,93.43 235.94,93.39 236.28,93.35 236.61,93.31 236.94,93.27 237.28,93.23 237.61,93.20 237.94,93.16 238.27,93.12 238.61,93.09 238.94,93.05 239.27,93.02 239.61,92.98 239.94,92.95 240.27,92.92 240.61,92.88 240.94,92.85 241.28,92.82 241.61,92.79 241.94,92.76 242.28,92.74 242.61,92.71 242.94,92.68 243.28,92.65 243.61,92.63 243.95,92.60 244.28,92.58 244.62,92.56 244.95,92.53 245.28,92.51 245.62,92.49 245.95,92.47 246.29,92.45 246.62,92.43 246.96,92.41 247.29,92.39 247.63,92.37 247.96,92.36 248.30,92.34 248.63,92.33 248.96,92.31 249.30,92.30 249.63,92.28 249.97,92.27 250.30,92.26 250.64,92.25 250.97,92.24 251.31,92.23 251.64,92.22 251.98,92.21 252.31,92.20 252.65,92.19 252.98,92.19 253.32,92.18 253.65,92.18 253.99,92.17 254.32,92.17 254.66,92.17 254.99,92.16 255.33,92.16 255.66,92.16 256.00,92.16 256.00,256.00" fill="#FF7A00"/>
</svg>