<svg xmlns="http://www.w3.org/2000/svg" viewBox="0 0 64 64">
  
  <rect x="4" y="18" width="56" height="28" rx="4" fill="#E07A2B"></rect>
  
  <rect x="7" y="21" width="50" height="22" rx="1.5" fill="#181614"></rect>
  <g fill="#D6CFC3">
    
    <rect x="14" y="24" width="3" height="3"></rect>
    <rect x="17" y="24" width="3" height="3"></rect>
    <rect x="20" y="24" width="3" height="3"></rect>
    <rect x="23" y="24" width="3" height="3"></rect>
    
    <rect x="14" y="27" width="3" height="3"></rect>
    <rect x="14" y="30" width="3" height="3"></rect>
    <rect x="14" y="33" width="3" height="3"></rect>
    <rect x="14" y="36" width="3" height="3"></rect>
    
    <rect x="17" y="30" width="3" height="3"></rect>
    <rect x="20" y="30" width="3" height="3"></rect>

    
    <rect x="30" y="27" width="3" height="3"></rect>
    <rect x="30" y="36" width="3" height="3"></rect>

    
    <rect x="37" y="24" width="3" height="3"></rect>
    <rect x="40" y="24" width="3" height="3"></rect>
    <rect x="43" y="24" width="3" height="3"></rect>
    <rect x="46" y="24" width="3" height="3"></rect>
    
    <rect x="37" y="27" width="3" height="3"></rect>
    <rect x="37" y="30" width="3" height="3"></rect>
    <rect x="37" y="33" width="3" height="3"></rect>
    
    <rect x="37" y="36" width="3" height="3"></rect>
    <rect x="40" y="36" width="3" height="3"></rect>
    <rect x="43" y="36" width="3" height="3"></rect>
    <rect x="46" y="36" width="3" height="3"></rect>
  </g>
</svg>