<svg version="1.1" id="Layer_1" xmlns="http://www.w3.org/2000/svg" xmlns:xlink="http://www.w3.org/1999/xlink" x="0px" y="0px"
	 width="100%" viewBox="0 0 1024 1024" enable-background="new 0 0 1024 1024" xml:space="preserve">
<path fill="#000000" opacity="1.000000" stroke="none" 
	d="
M341.410400,748.728271 
	C315.228607,737.448242 290.986969,723.655823 269.131592,705.822937 
	C248.249817,688.784485 229.665817,669.627441 213.606171,647.904663 
	C184.768356,608.897705 167.678848,565.139771 160.107620,517.519165 
	C154.883728,484.662506 155.852371,451.892181 162.182556,419.169373 
	C169.809006,379.745728 184.085999,343.033813 206.277542,309.618439 
	C237.001160,263.355682 277.225952,227.754425 327.539551,203.823029 
	C356.339050,190.124695 386.594482,181.197388 418.160889,177.071548 
	C441.340424,174.041870 464.601440,174.043503 487.941956,176.416962 
	C529.016541,180.593735 567.279724,193.459549 603.194702,213.263504 
	C635.195984,230.909393 662.311340,254.669846 685.674866,282.738434 
	C711.168335,313.366028 729.560120,347.810181 741.190125,385.890717 
	C744.304688,396.089020 746.603210,406.480713 748.126404,417.034271 
	C749.245117,424.785492 744.617432,431.479523 737.183960,433.039856 
	C729.669189,434.617188 721.708374,430.381073 719.784973,423.185974 
	C717.554504,414.842346 716.317505,406.225037 713.936096,397.931274 
	C702.136658,356.836212 681.508362,320.726837 652.121338,289.633636 
	C624.801270,260.727264 592.717529,238.823318 555.731812,224.200562 
	C524.609680,211.896057 492.341919,205.145157 458.795380,205.240921 
	C380.116943,205.465546 313.157898,233.392212 259.027985,290.766785 
	C227.664734,324.010040 206.688461,363.125519 195.080841,407.358673 
	C188.777832,431.377472 185.673859,455.745514 186.433838,480.511688 
	C187.944153,529.729675 202.069809,575.112061 228.536392,616.695740 
	C249.823395,650.141418 277.324585,677.301636 310.607697,698.667786 
	C344.744904,720.582275 381.850800,734.683655 422.164429,739.690369 
	C482.014618,747.123352 538.045044,735.273560 590.502625,705.677795 
	C612.602905,693.209106 632.456909,677.935974 649.620300,659.289185 
	C659.370972,648.695801 670.923889,655.759644 674.336365,664.569275 
	C676.888916,671.159058 674.190613,676.322327 669.831299,680.859863 
	C661.635681,689.390747 653.247131,697.740234 644.043396,705.205078 
	C602.605347,738.814148 555.243286,759.264771 502.838074,768.199524 
	C475.580292,772.846741 448.153259,772.739136 420.698639,769.729370 
	C393.331604,766.729248 367.177368,759.216919 341.410400,748.728271 
z"/>
<path fill="#000000" opacity="1.000000" stroke="none" 
	d="
M929.307495,464.175964 
	C922.104797,490.614258 910.850464,514.578003 893.142822,535.171326 
	C874.759033,556.551208 852.016174,571.321045 824.971497,579.477905 
	C804.572571,585.630371 783.798462,588.984985 762.458374,588.273438 
	C758.927490,588.155762 756.716919,589.128418 754.927124,592.484497 
	C745.372742,610.400513 732.573303,625.976074 718.977661,640.903381 
	C712.710632,647.784241 705.351379,647.957397 698.742310,641.924500 
	C691.639038,635.440552 691.229614,628.162537 697.497864,620.870972 
	C703.578796,613.797180 709.659424,606.722229 715.657776,599.578613 
	C727.010315,586.058777 733.451233,570.727356 734.920593,552.880371 
	C736.796082,530.100769 742.970642,508.317657 754.558899,488.416687 
	C774.514648,454.145752 804.439514,432.289185 841.480469,419.501587 
	C868.987061,410.005524 897.428406,407.828156 926.255371,408.881500 
	C933.127197,409.132599 936.594482,413.012421 936.084778,419.957977 
	C935.000427,434.732300 933.611694,449.474854 929.307495,464.175964 
M893.570068,439.183868 
	C866.124939,440.760101 840.353455,447.877045 817.222900,463.057526 
	C784.721008,484.388458 767.451843,514.939087 763.363037,553.324768 
	C762.912109,557.558044 764.407104,558.847961 768.560303,558.817200 
	C775.069458,558.768921 781.533142,558.406372 787.994995,557.713257 
	C815.185486,554.796936 840.009644,545.858887 860.539673,527.398865 
	C883.760864,506.518860 897.500000,480.087708 903.175598,449.510529 
	C905.134827,438.955444 907.368042,438.846680 893.570068,439.183868 
z"/>
<path fill="#000000" opacity="1.000000" stroke="none" 
	d="
M376.135712,282.931244 
	C398.702393,329.324646 421.122833,375.375366 443.543274,421.426056 
	C443.915710,421.334808 444.288147,421.243561 444.660583,421.152344 
	C444.660583,413.931824 444.663391,406.711273 444.660034,399.490753 
	C444.652222,382.666138 444.511902,365.840240 444.678589,349.017365 
	C444.785034,338.272827 454.989136,331.526794 464.004028,336.121704 
	C470.085693,339.221588 471.945831,344.852509 471.775909,351.226624 
	C470.923431,383.203186 471.692505,415.184784 471.362946,447.161743 
	C471.309662,452.333221 472.251617,456.401550 476.449829,460.331360 
	C485.865784,469.145203 486.237457,484.951782 478.171844,495.481445 
	C469.936859,506.232239 455.022278,509.130524 443.194550,502.278473 
	C431.179321,495.317749 426.014008,480.916992 431.662933,468.172333 
	C433.566620,463.877441 432.787262,460.784363 430.947174,457.029694 
	C403.328156,400.673523 375.787476,344.278931 348.267059,287.874481 
	C344.557770,280.272156 347.468719,272.243256 355.062561,268.559601 
	C361.888580,265.248413 368.893585,268.188721 372.613525,275.897430 
	C373.699097,278.146973 374.862000,280.359192 376.135712,282.931244 
z"/>
</svg>