<svg xmlns="http://www.w3.org/2000/svg" width="1024" height="1024" viewBox="0 0 1024 1024" fill="none">
  <path fill="#FF7A00" fill-rule="evenodd" d="M 512.00 512.00 m -389.12 0 a 389.12 389.12 0 1 0 778.24 0 a 389.12 389.12 0 1 0 -778.24 0 M 512.00 512.00 m -269.12 0 a 269.12 269.12 0 1 1 538.24 0 a 269.12 269.12 0 1 1 -538.24 0"/>
  <polygon points="512.00,512.00 317.44,175.01 318.13,174.61 318.82,174.22 319.51,173.82 320.20,173.43 320.90,173.04 321.59,172.65 322.28,172.26 322.98,171.87 323.68,171.49 324.37,171.10 325.07,170.72 325.77,170.34 326.47,169.96 327.17,169.58 327.87,169.20 328.57,168.83 329.27,168.45 329.98,168.08 330.68,167.71 331.38,167.34 332.09,166.97 332.80,166.60 333.50,166.24 334.21,165.87 334.92,165.51 335.63,165.15 336.34,164.79 337.05,164.43 337.76,164.07 338.47,163.72 339.18,163.36 339.90,163.01 340.61,162.66 341.33,162.31 342.04,161.96 342.76,161.61 343.47,161.27 344.19,160.92 344.91,160.58 345.63,160.24 346.35,159.90 347.07,159.56 347.79,159.23 348.51,158.89 349.24,158.56 349.96,158.22 350.68,157.89 351.41,157.56 352.13,157.24 352.86,156.91 353.59,156.59 354.31,156.26 355.04,155.94 355.77,155.62 356.50,155.30 357.23,154.98 357.96,154.67 358.69,154.35 359.42,154.04 360.15,153.73 360.89,153.42 361.62,153.11 362.36,152.81 363.09,152.50 363.83,152.20 364.56,151.89 365.30,151.59 366.04,151.29 366.77,151.00 367.51,150.70 368.25,150.40 368.99,150.11 369.73,149.82 370.47,149.53 371.22,149.24 371.96,148.95 372.70,148.67 373.44,148.38 374.19,148.10 374.93,147.82 375.68,147.54 376.42,147.26 377.17,146.99 377.92,146.71 378.66,146.44 379.41,146.17 380.16,145.90 380.91,145.63 381.66,145.36 382.41,145.09 383.16,144.83 383.91,144.57 384.66,144.30 385.42,144.05 386.17,143.79 386.92,143.53 387.68,143.28 388.43,143.02 389.18,142.77 389.94,142.52 390.70,142.27 391.45,142.02 392.21,141.78 392.97,141.53 393.72,141.29 394.48,141.05 395.24,140.81 396.00,140.57 396.76,140.34 397.52,140.10 398.28,139.87 399.04,139.64 399.81,139.41 400.57,139.18 401.33,138.95 402.09,138.72 402.86,138.50 403.62,138.28 404.39,138.06 405.15,137.84 405.92,137.62 406.68,137.40 407.45,137.19 408.22,136.98 408.98,136.76 409.75,136.55 410.52,136.35 411.29,136.14 412.06,135.93 412.83,135.73 413.60,135.53 414.37,135.33 415.14,135.13 415.91,134.93 416.68,134.74 417.45,134.54 418.22,134.35 419.00,134.16 419.77,133.97 420.54,133.78 421.32,133.59 422.09,133.41 422.87,133.23 423.64,133.04 424.42,132.87 425.19,132.69 425.97,132.51 426.74,132.33 427.52,132.16 428.30,131.99 429.07,131.82 429.85,131.65 430.63,131.48 431.41,131.32 432.19,131.15 432.97,130.99 433.75,130.83 434.53,130.67 435.31,130.51 436.09,130.36 436.87,130.20 437.65,130.05 438.43,129.90 439.21,129.75 439.99,129.60 440.78,129.45 441.56,129.31 442.34,129.17 443.12,129.02 443.91,128.88 444.69,128.75 445.48,128.61 446.26,128.47 447.04,128.34 447.83,128.21 448.61,128.08 449.40,127.95 450.19,127.82 450.97,127.70 451.76,127.57 452.54,127.45 453.33,127.33 454.12,127.21 454.90,127.09 455.69,126.98 456.48,126.86 457.27,126.75 458.06,126.64 458.84,126.53 459.63,126.42 460.42,126.31 461.21,126.21 462.00,126.11 462.79,126.00 463.58,125.90 464.37,125.81 465.16,125.71 465.95,125.61 466.74,125.52 467.53,125.43 468.32,125.34 469.11,125.25 469.90,125.16 470.69,125.08 471.48,125.00 472.28,124.91 473.07,124.83 473.86,124.75 474.65,124.68 475.44,124.60 476.24,124.53 477.03,124.45 477.82,124.38 478.61,124.31 479.41,124.25 480.20,124.18 480.99,124.12 481.79,124.05 482.58,123.99 483.37,123.93 484.17,123.88 484.96,123.82 485.76,123.77 486.55,123.71 487.34,123.66 488.14,123.61 488.93,123.56 489.73,123.52 490.52,123.47 491.32,123.43 492.11,123.39 492.91,123.35 493.70,123.31 494.50,123.27 495.29,123.24 496.09,123.21 496.88,123.17 497.68,123.14 498.47,123.12 499.27,123.09 500.06,123.06 500.86,123.04 501.65,123.02 502.45,123.00 503.25,122.98 504.04,122.96 504.84,122.95 505.63,122.93 506.43,122.92 507.22,122.91 508.02,122.90 508.82,122.89 509.61,122.89 510.41,122.88 511.20,122.88 512.00,122.88 512.00,512.00" fill="#FF7A00"/>
</svg>